<svg xmlns:dc="http://purl.org/dc/elements/1.1/" xmlns:cc="http://creativecommons.org/ns#" xmlns:rdf="http://www.w3.org/1999/02/22-rdf-syntax-ns#" xmlns:svg="http://www.w3.org/2000/svg" xmlns="http://www.w3.org/2000/svg" xmlns:sodipodi="http://sodipodi.sourceforge.net/DTD/sodipodi-0.dtd" xmlns:inkscape="http://www.inkscape.org/namespaces/inkscape" inkscape:version="1.0beta2 (2b71d25, 2019-12-03)" height="51.639999" width="250" sodipodi:docname="LOONA logo KOR white.svg" id="svg40" version="1.1" viewBox="0 0 250 51.64">
  <metadata id="metadata46">
    <rdf:RDF>
      <cc:Work rdf:about="">
        <dc:format>image/svg+xml</dc:format>
        <dc:type rdf:resource="http://purl.org/dc/dcmitype/StillImage"/>
        <dc:title>logo_3units-01</dc:title>
      </cc:Work>
    </rdf:RDF>
  </metadata>
  <defs id="defs44"/>
  <sodipodi:namedview inkscape:current-layer="svg40" inkscape:window-maximized="1" inkscape:window-y="23" inkscape:window-x="1280" inkscape:cy="46.042222" inkscape:cx="167.88889" inkscape:zoom="4.5" showgrid="false" id="namedview42" inkscape:window-height="1035" inkscape:window-width="1920" inkscape:pageshadow="2" inkscape:pageopacity="0" guidetolerance="10" gridtolerance="10" objecttolerance="10" borderopacity="1" inkscape:document-rotation="0" bordercolor="#666666" pagecolor="#ffffff"/>
  <title id="title10">logo_3units-01</title>
  <g style="fill:#ffffff" transform="matrix(1.1559104,0,0,1.1559104,0.66667834,-35.79658)" data-name="レイヤー 2" id="レイヤー_2">
    <g style="fill:#ffffff" id="contents">
      <path style="fill:#ffffff" inkscape:connector-curvature="0" id="path12" d="m 143.22,61.81 a 24.22,24.22 0 0 0 4.91,-1.48 17.33,17.33 0 0 0 3.79,-2.16 11.47,11.47 0 0 0 2.53,-2.61 11,11 0 0 0 2.55,2.61 18.4,18.4 0 0 0 3.86,2.16 24.72,24.72 0 0 0 4.92,1.48 29.54,29.54 0 0 0 5.8,0.54 h 0.64 v -5 h -0.64 a 21,21 0 0 1 -6.2,-0.83 14.4,14.4 0 0 1 -4.47,-2.24 9.5,9.5 0 0 1 -2.7,-3.28 8.53,8.53 0 0 1 -0.91,-3.83 V 31.62 h -5.75 v 15.59 a 8.4,8.4 0 0 1 -0.91,3.83 9.5,9.5 0 0 1 -2.73,3.22 14.4,14.4 0 0 1 -4.47,2.24 21,21 0 0 1 -6.2,0.83 h -0.63 v 5 h 0.63 a 30.84,30.84 0 0 0 6,-0.54"/>
      <polygon style="fill:#ffffff" id="polygon14" points="136.21,75.37 172.64,75.37 172.64,70.36 157.28,70.36 157.28,62.4 151.57,62.4 151.57,70.36 136.21,70.36 "/>
      <polygon style="fill:#ffffff" id="polygon16" points="209.73,40.14 204.71,40.14 204.71,45.15 209.73,45.15 209.73,51.87 204.71,51.87 204.71,56.89 209.73,56.89 209.73,64.21 184.7,64.21 184.7,31.62 179,31.62 179,69.23 209.73,69.23 209.73,75.37 215.43,75.37 215.43,31.62 209.73,31.62 "/>
      <rect style="fill:#ffffff" id="rect18" height="43.75" width="5.6999998" y="31.549999" x="30.74"/>
      <path style="fill:#ffffff" inkscape:connector-curvature="0" id="path20" d="m 18.29,63.89 a 9.82,9.82 0 0 1 -0.57,3.69 5.27,5.27 0 0 1 -1.47,2.12 5,5 0 0 1 -2,1 11.19,11.19 0 0 1 -2.31,0.25 10.94,10.94 0 0 1 -2.19,-0.23 4.35,4.35 0 0 1 -2,-1 A 5.2,5.2 0 0 1 6.3,67.61 10,10 0 0 1 5.73,63.87 V 43.05 a 10,10 0 0 1 0.57,-3.74 5,5 0 0 1 1.45,-2.08 4.52,4.52 0 0 1 2,-0.94 10.92,10.92 0 0 1 2.19,-0.22 11.19,11.19 0 0 1 2.31,0.25 4.84,4.84 0 0 1 2,1 5.3,5.3 0 0 1 1.47,2.11 9.71,9.71 0 0 1 0.57,3.64 z M 21.65,35.63 A 9.81,9.81 0 0 0 17.94,32.53 13.56,13.56 0 0 0 11.85,31.35 14.11,14.11 0 0 0 5.63,32.51 8.78,8.78 0 0 0 2,35.58 11,11 0 0 0 0.39,40 32.43,32.43 0 0 0 0,45 v 16.93 a 30,30 0 0 0 0.42,5.07 11.36,11.36 0 0 0 1.67,4.38 9,9 0 0 0 3.59,3.09 13.67,13.67 0 0 0 6.17,1.18 13.42,13.42 0 0 0 6,-1.18 9.83,9.83 0 0 0 3.72,-3.09 A 11.62,11.62 0 0 0 23.47,67 24.2,24.2 0 0 0 24,61.93 V 45 a 26.13,26.13 0 0 0 -0.49,-5 11.32,11.32 0 0 0 -1.85,-4.37"/>
      <path style="fill:#ffffff" inkscape:connector-curvature="0" id="path22" d="m 94.26,42.21 a 7.13,7.13 0 0 1 0.64,-3.29 4.52,4.52 0 0 1 1.62,-1.84 5.89,5.89 0 0 1 2.16,-0.81 14,14 0 0 1 2.27,-0.2 14.89,14.89 0 0 1 2.38,0.2 6.06,6.06 0 0 1 2.21,0.81 4.58,4.58 0 0 1 1.65,1.84 7.26,7.26 0 0 1 0.64,3.29 v 9.54 a 7.35,7.35 0 0 1 -0.64,3.34 5,5 0 0 1 -1.65,1.9 5.64,5.64 0 0 1 -2.21,0.86 15.12,15.12 0 0 1 -4.65,0 5.25,5.25 0 0 1 -2.16,-0.81 4.67,4.67 0 0 1 -1.62,-1.89 7.52,7.52 0 0 1 -0.64,-3.42 z M 90.89,59 a 10.92,10.92 0 0 0 3.77,2.66 15,15 0 0 0 6.23,1.1 15.16,15.16 0 0 0 6.11,-1.08 11.86,11.86 0 0 0 3.88,-2.63 9.08,9.08 0 0 0 2,-3.22 8.5,8.5 0 0 0 0.59,-2.8 v -12 a 9,9 0 0 0 -0.56,-2.77 9.21,9.21 0 0 0 -2,-3.2 12.05,12.05 0 0 0 -3.88,-2.65 15,15 0 0 0 -6.18,-1.11 15.47,15.47 0 0 0 -6.28,1.08 10.6,10.6 0 0 0 -3.76,2.63 8.37,8.37 0 0 0 -1.81,3.25 10.65,10.65 0 0 0 -0.46,2.82 V 53 a 10.11,10.11 0 0 0 0.49,2.8 8.58,8.58 0 0 0 1.86,3.2"/>
      <polygon style="fill:#ffffff" id="polygon24" points="124.99,75.11 124.99,70.09 124.99,31.35 119.29,31.35 119.29,70.09 88.56,70.09 88.56,75.11 119.29,75.11 "/>
      <polygon style="fill:#ffffff" id="polygon26" points="43.19,31.55 43.19,52.24 67.18,52.24 67.18,47.23 48.9,47.23 48.9,36.56 67.18,36.56 67.18,31.55 "/>
      <polygon style="fill:#ffffff" id="polygon28" points="79.67,44.4 84.69,44.4 84.69,39.39 79.67,39.39 79.67,31.57 73.97,31.57 73.97,52.22 79.67,52.22 "/>
      <polygon style="fill:#ffffff" id="polygon30" points="73.97,60.18 73.97,62.75 43.19,62.75 43.19,75.35 79.67,75.35 79.67,70.38 48.9,70.38 48.9,67.77 79.67,67.77 79.67,55.17 43.19,55.17 43.19,60.18 "/>
    </g>
  </g>
</svg>